# xmcd CD database file
#
# Track frame offsets:
#	150
#	21635
#	38262
#	59767
#
# Disc length: 1016 seconds
#
# Revision: 0
# Processed by: cddbd v1.5.1PL0 Copyright (c) Steve Scherf et al.
# Submitted via: CDex 1.51
#
DISCID=3003f604
DTITLE=花＊花 - ハナムケノハナタバ
DYEAR=2001
DGENRE=ポップ (一般)
TTITLE0=ハナムケノハナタバ
TTITLE1=秘密基地
TTITLE2=ハナムケノハナタバ-inst-
TTITLE3=秘密基地-inst-
EXTD=YEAR: 2001
EXTT0=
EXTT1=
EXTT2=
EXTT3=
PLAYORDER=
